<mxfile host="65bd71144e">
    <diagram id="5V4FoMTN4422u7Wz_iTo" name="ESP-IDF NVS Architecture">
        <mxGraphModel dx="1600" dy="1200" grid="1" gridSize="10" guides="1" tooltips="1" connect="1" arrows="1" fold="1" page="1" pageScale="1" pageWidth="2400" pageHeight="1800" math="0" shadow="0">
            <root>
                <mxCell id="0"/>
                <mxCell id="1" parent="0"/>
                
                <!-- Title -->
                <mxCell id="title" value="ESP-IDF NVS (Non-Volatile Storage) Architecture" style="text;html=1;strokeColor=none;fillColor=none;align=center;verticalAlign=middle;whiteSpace=wrap;rounded=0;fontSize=24;fontStyle=1" vertex="1" parent="1">
                    <mxGeometry x="800" y="30" width="800" height="40" as="geometry"/>
                </mxCell>
                
                <!-- Memory (RAM) Section -->
                <mxCell id="memory_section" value="Memory (RAM) Structures" style="rounded=1;whiteSpace=wrap;html=1;fillColor=#e1d5e7;strokeColor=#9673a6;fontSize=18;fontStyle=1;align=center;verticalAlign=top;" vertex="1" parent="1">
                    <mxGeometry x="50" y="100" width="500" height="600" as="geometry"/>
                </mxCell>
                
                <!-- NVSPartitionManager -->
                <mxCell id="partition_manager" value="NVSPartitionManager&#xa;(Singleton)" style="rounded=1;whiteSpace=wrap;html=1;fillColor=#fff2cc;strokeColor=#d6b656;fontSize=12;fontStyle=1;" vertex="1" parent="1">
                    <mxGeometry x="80" y="150" width="200" height="70" as="geometry"/>
                </mxCell>
                
                <!-- Storage Objects -->
                <mxCell id="storage1" value="Storage Object 1&#xa;(nvs partition)" style="rounded=1;whiteSpace=wrap;html=1;fillColor=#d5e8d4;strokeColor=#82b366;fontSize=11;" vertex="1" parent="1">
                    <mxGeometry x="80" y="250" width="140" height="60" as="geometry"/>
                </mxCell>
                
                <mxCell id="storage2" value="Storage Object 2&#xa;(custom partition)" style="rounded=1;whiteSpace=wrap;html=1;fillColor=#d5e8d4;strokeColor=#82b366;fontSize=11;" vertex="1" parent="1">
                    <mxGeometry x="250" y="250" width="140" height="60" as="geometry"/>
                </mxCell>
                
                <!-- PageManager -->
                <mxCell id="page_manager" value="PageManager" style="rounded=1;whiteSpace=wrap;html=1;fillColor=#dae8fc;strokeColor=#6c8ebf;fontSize=12;fontStyle=1;" vertex="1" parent="1">
                    <mxGeometry x="80" y="340" width="310" height="50" as="geometry"/>
                </mxCell>
                
                <!-- Page Lists -->
                <mxCell id="free_pages" value="Free Pages List" style="rounded=1;whiteSpace=wrap;html=1;fillColor=#f8cecc;strokeColor=#b85450;fontSize=10;" vertex="1" parent="1">
                    <mxGeometry x="80" y="420" width="90" height="50" as="geometry"/>
                </mxCell>
                
                <mxCell id="active_page" value="Active Page" style="rounded=1;whiteSpace=wrap;html=1;fillColor=#ffcc99;strokeColor=#d79b00;fontSize=10;" vertex="1" parent="1">
                    <mxGeometry x="190" y="420" width="90" height="50" as="geometry"/>
                </mxCell>
                
                <mxCell id="full_pages" value="Full Pages List" style="rounded=1;whiteSpace=wrap;html=1;fillColor=#d0cee2;strokeColor=#56517e;fontSize=10;" vertex="1" parent="1">
                    <mxGeometry x="300" y="420" width="90" height="50" as="geometry"/>
                </mxCell>
                
                <!-- Namespace Management -->
                <mxCell id="namespaces" value="Namespaces&#xa;TNamespaces" style="rounded=1;whiteSpace=wrap;html=1;fillColor=#ffe6cc;strokeColor=#d79b00;fontSize=10;" vertex="1" parent="1">
                    <mxGeometry x="80" y="500" width="110" height="60" as="geometry"/>
                </mxCell>
                
                <!-- BLOB Index -->
                <mxCell id="blob_index" value="BLOB Index&#xa;TBlobIndexList" style="rounded=1;whiteSpace=wrap;html=1;fillColor=#ffe6cc;strokeColor=#d79b00;fontSize=10;" vertex="1" parent="1">
                    <mxGeometry x="210" y="500" width="110" height="60" as="geometry"/>
                </mxCell>
                
                <!-- Hash Table -->
                <mxCell id="hash_table" value="Hash Table&#xa;(Performance Cache)" style="rounded=1;whiteSpace=wrap;html=1;fillColor=#ffe6cc;strokeColor=#d79b00;fontSize=10;" vertex="1" parent="1">
                    <mxGeometry x="340" y="500" width="110" height="60" as="geometry"/>
                </mxCell>
                
                <!-- Handle Management -->
                <mxCell id="handle_list" value="NVS Handle List&#xa;intrusive_list&lt;NVSHandleEntry&gt;" style="rounded=1;whiteSpace=wrap;html=1;fillColor=#e1d5e7;strokeColor=#9673a6;fontSize=10;" vertex="1" parent="1">
                    <mxGeometry x="80" y="590" width="220" height="60" as="geometry"/>
                </mxCell>
                
                <!-- Lock -->
                <mxCell id="lock" value="Global Lock&#xa;(Mutex)" style="rounded=1;whiteSpace=wrap;html=1;fillColor=#f8cecc;strokeColor=#b85450;fontSize=10;" vertex="1" parent="1">
                    <mxGeometry x="320" y="590" width="90" height="60" as="geometry"/>
                </mxCell>
                
                <!-- Flash Physical Layout Section -->
                <mxCell id="flash_section" value="Flash Physical Layout" style="rounded=1;whiteSpace=wrap;html=1;fillColor=#ffd966;strokeColor=#d6b656;fontSize=18;fontStyle=1;align=center;verticalAlign=top;" vertex="1" parent="1">
                    <mxGeometry x="600" y="100" width="1200" height="600" as="geometry"/>
                </mxCell>
                
                <!-- Partition Table -->
                <mxCell id="partition_table" value="Partition Table" style="rounded=1;whiteSpace=wrap;html=1;fillColor=#d5e8d4;strokeColor=#82b366;fontSize=14;fontStyle=1;" vertex="1" parent="1">
                    <mxGeometry x="630" y="150" width="140" height="50" as="geometry"/>
                </mxCell>
                
                <!-- NVS Partition -->
                <mxCell id="nvs_partition" value="NVS Partition (64KB - 1MB)" style="rounded=1;whiteSpace=wrap;html=1;fillColor=#dae8fc;strokeColor=#6c8ebf;fontSize=16;fontStyle=1;" vertex="1" parent="1">
                    <mxGeometry x="800" y="150" width="960" height="50" as="geometry"/>
                </mxCell>
                
                <!-- Pages in NVS Partition -->
                <!-- Page 0 - UNINITIALIZED -->
                <mxCell id="page0" value="Page 0 (4KB)&#xa;State: UNINITIALIZED&#xa;0xFFFFFFFF" style="rounded=1;whiteSpace=wrap;html=1;fillColor=#f8cecc;strokeColor=#b85450;align=center;verticalAlign=middle;fontSize=11;" vertex="1" parent="1">
                    <mxGeometry x="800" y="230" width="140" height="90" as="geometry"/>
                </mxCell>
                
                <!-- Page 1 - ACTIVE -->
                <mxCell id="page1" value="Page 1 (4KB)&#xa;State: ACTIVE&#xa;Seq: 3" style="rounded=1;whiteSpace=wrap;html=1;fillColor=#ffcc99;strokeColor=#d79b00;align=center;verticalAlign=middle;fontSize=11;" vertex="1" parent="1">
                    <mxGeometry x="960" y="230" width="140" height="90" as="geometry"/>
                </mxCell>
                
                <!-- Page 2 - FULL -->
                <mxCell id="page2" value="Page 2 (4KB)&#xa;State: FULL&#xa;Seq: 2" style="rounded=1;whiteSpace=wrap;html=1;fillColor=#d0cee2;strokeColor=#56517e;align=center;verticalAlign=middle;fontSize=11;" vertex="1" parent="1">
                    <mxGeometry x="1120" y="230" width="140" height="90" as="geometry"/>
                </mxCell>
                
                <!-- Page 3 - FREEING -->
                <mxCell id="page3" value="Page 3 (4KB)&#xa;State: FREEING&#xa;Seq: 1" style="rounded=1;whiteSpace=wrap;html=1;fillColor=#ffe6cc;strokeColor=#d79b00;align=center;verticalAlign=middle;fontSize=11;" vertex="1" parent="1">
                    <mxGeometry x="1280" y="230" width="140" height="90" as="geometry"/>
                </mxCell>
                
                <!-- Page 4 - CORRUPT -->
                <mxCell id="page4" value="Page 4 (4KB)&#xa;State: CORRUPT&#xa;CRC Error" style="rounded=1;whiteSpace=wrap;html=1;fillColor=#ff9999;strokeColor=#d6b656;align=center;verticalAlign=middle;fontSize=11;" vertex="1" parent="1">
                    <mxGeometry x="1440" y="230" width="140" height="90" as="geometry"/>
                </mxCell>
                
                <!-- More pages indication -->
                <mxCell id="more_pages" value="... More Pages" style="rounded=1;whiteSpace=wrap;html=1;fillColor=#e1d5e7;strokeColor=#9673a6;align=center;verticalAlign=middle;fontStyle=3;fontSize=11;" vertex="1" parent="1">
                    <mxGeometry x="1600" y="230" width="140" height="90" as="geometry"/>
                </mxCell>
                
                <!-- Page Internal Structure -->
                <mxCell id="page_structure_title" value="Page Internal Structure (4KB)" style="text;html=1;strokeColor=none;fillColor=none;align=center;verticalAlign=middle;whiteSpace=wrap;rounded=0;fontSize=16;fontStyle=1" vertex="1" parent="1">
                    <mxGeometry x="800" y="350" width="300" height="30" as="geometry"/>
                </mxCell>
                
                <!-- Page Header -->
                <mxCell id="page_header" value="Page Header (32B)&#xa;Magic | Version | State | Seq | CRC" style="rounded=1;whiteSpace=wrap;html=1;fillColor=#d5e8d4;strokeColor=#82b366;align=center;fontSize=11;" vertex="1" parent="1">
                    <mxGeometry x="800" y="390" width="180" height="60" as="geometry"/>
                </mxCell>
                
                <!-- Entries -->
                <mxCell id="entry1" value="Entry 1 (32B)&#xa;NS:1 Key:'wifi_ssid'&#xa;Type:STR Span:2" style="rounded=1;whiteSpace=wrap;html=1;fillColor=#fff2cc;strokeColor=#d6b656;align=center;fontSize=10;" vertex="1" parent="1">
                    <mxGeometry x="800" y="470" width="120" height="70" as="geometry"/>
                </mxCell>
                
                <mxCell id="entry2" value="Entry 2 (32B)&#xa;Data: 'MyWiFi'" style="rounded=1;whiteSpace=wrap;html=1;fillColor=#fff2cc;strokeColor=#d6b656;align=center;fontSize=10;" vertex="1" parent="1">
                    <mxGeometry x="940" y="470" width="120" height="70" as="geometry"/>
                </mxCell>
                
                <mxCell id="entry3" value="Entry 3 (32B)&#xa;NS:1 Key:'password'&#xa;Type:STR Span:1" style="rounded=1;whiteSpace=wrap;html=1;fillColor=#fff2cc;strokeColor=#d6b656;align=center;fontSize=10;" vertex="1" parent="1">
                    <mxGeometry x="1080" y="470" width="120" height="70" as="geometry"/>
                </mxCell>
                
                <mxCell id="entry4" value="Entry 4 (32B)&#xa;ERASED&#xa;0xFFFFFFFF" style="rounded=1;whiteSpace=wrap;html=1;fillColor=#f8cecc;strokeColor=#b85450;align=center;fontSize=10;" vertex="1" parent="1">
                    <mxGeometry x="1220" y="470" width="120" height="70" as="geometry"/>
                </mxCell>
                
                <mxCell id="entry5" value="Entry 5 (32B)&#xa;BLOB_IDX&#xa;Key:'user_data'" style="rounded=1;whiteSpace=wrap;html=1;fillColor=#e1d5e7;strokeColor=#9673a6;align=center;fontSize=10;" vertex="1" parent="1">
                    <mxGeometry x="1360" y="470" width="120" height="70" as="geometry"/>
                </mxCell>
                
                <mxCell id="entry_more" value="... 121 more entries" style="rounded=1;whiteSpace=wrap;html=1;fillColor=#e1d5e7;strokeColor=#9673a6;align=center;fontSize=10;fontStyle=3;" vertex="1" parent="1">
                    <mxGeometry x="1500" y="470" width="120" height="70" as="geometry"/>
                </mxCell>
                
                <!-- Total entries indication -->
                <mxCell id="total_entries" value="Total: 126 entries x 32 bytes = 4032 bytes + 64 bytes reserved = 4096 bytes (4KB)" style="text;html=1;strokeColor=none;fillColor=none;align=center;verticalAlign=middle;whiteSpace=wrap;rounded=0;fontSize=11;fontStyle=3;" vertex="1" parent="1">
                    <mxGeometry x="800" y="560" width="820" height="30" as="geometry"/>
                </mxCell>
                
                <!-- BLOB Data Example -->
                <mxCell id="blob_example_title" value="BLOB Data Storage Example" style="text;html=1;strokeColor=none;fillColor=none;align=center;verticalAlign=middle;whiteSpace=wrap;rounded=0;fontSize=16;fontStyle=1" vertex="1" parent="1">
                    <mxGeometry x="800" y="600" width="300" height="30" as="geometry"/>
                </mxCell>
                
                <mxCell id="blob_idx" value="BLOB_IDX&#xa;chunkStart: VER_0&#xa;chunkCount: 3&#xa;dataSize: 8192" style="rounded=1;whiteSpace=wrap;html=1;fillColor=#e1d5e7;strokeColor=#9673a6;align=center;fontSize=10;" vertex="1" parent="1">
                    <mxGeometry x="800" y="640" width="120" height="70" as="geometry"/>
                </mxCell>
                
                <mxCell id="blob_data1" value="BLOB_DATA&#xa;Chunk 0&#xa;Data: [0-3967]" style="rounded=1;whiteSpace=wrap;html=1;fillColor=#ffe6cc;strokeColor=#d79b00;align=center;fontSize=10;" vertex="1" parent="1">
                    <mxGeometry x="940" y="640" width="120" height="70" as="geometry"/>
                </mxCell>
                
                <mxCell id="blob_data2" value="BLOB_DATA&#xa;Chunk 1&#xa;Data: [3968-7935]" style="rounded=1;whiteSpace=wrap;html=1;fillColor=#ffe6cc;strokeColor=#d79b00;align=center;fontSize=10;" vertex="1" parent="1">
                    <mxGeometry x="1080" y="640" width="120" height="70" as="geometry"/>
                </mxCell>
                
                <mxCell id="blob_data3" value="BLOB_DATA&#xa;Chunk 2&#xa;Data: [7936-8191]" style="rounded=1;whiteSpace=wrap;html=1;fillColor=#ffe6cc;strokeColor=#d79b00;align=center;fontSize=10;" vertex="1" parent="1">
                    <mxGeometry x="1220" y="640" width="120" height="70" as="geometry"/>
                </mxCell>
                
                <!-- Data Flow Section -->
                <mxCell id="dataflow_section" value="Data Flow &amp; Operations" style="rounded=1;whiteSpace=wrap;html=1;fillColor=#f0f0f0;strokeColor=#666666;fontSize=18;fontStyle=1;align=center;verticalAlign=top;" vertex="1" parent="1">
                    <mxGeometry x="50" y="750" width="1750" height="500" as="geometry"/>
                </mxCell>
                
                <!-- API Layer -->
                <mxCell id="api_layer" value="API Layer" style="rounded=1;whiteSpace=wrap;html=1;fillColor=#d5e8d4;strokeColor=#82b366;fontSize=16;fontStyle=1;" vertex="1" parent="1">
                    <mxGeometry x="80" y="800" width="1690" height="50" as="geometry"/>
                </mxCell>
                
                <!-- API Functions -->
                <mxCell id="api_nvs_open" value="nvs_open()" style="rounded=1;whiteSpace=wrap;html=1;fillColor=#fff2cc;strokeColor=#d6b656;fontSize=11;" vertex="1" parent="1">
                    <mxGeometry x="100" y="880" width="100" height="40" as="geometry"/>
                </mxCell>
                
                <mxCell id="api_nvs_set" value="nvs_set_*()" style="rounded=1;whiteSpace=wrap;html=1;fillColor=#fff2cc;strokeColor=#d6b656;fontSize=11;" vertex="1" parent="1">
                    <mxGeometry x="220" y="880" width="100" height="40" as="geometry"/>
                </mxCell>
                
                <mxCell id="api_nvs_get" value="nvs_get_*()" style="rounded=1;whiteSpace=wrap;html=1;fillColor=#fff2cc;strokeColor=#d6b656;fontSize=11;" vertex="1" parent="1">
                    <mxGeometry x="340" y="880" width="100" height="40" as="geometry"/>
                </mxCell>
                
                <mxCell id="api_nvs_commit" value="nvs_commit()" style="rounded=1;whiteSpace=wrap;html=1;fillColor=#fff2cc;strokeColor=#d6b656;fontSize=11;" vertex="1" parent="1">
                    <mxGeometry x="460" y="880" width="100" height="40" as="geometry"/>
                </mxCell>
                
                <mxCell id="api_nvs_close" value="nvs_close()" style="rounded=1;whiteSpace=wrap;html=1;fillColor=#fff2cc;strokeColor=#d6b656;fontSize=11;" vertex="1" parent="1">
                    <mxGeometry x="580" y="880" width="100" height="40" as="geometry"/>
                </mxCell>
                
                <!-- Write Flow -->
                <mxCell id="write_flow" value="Write Operation Flow" style="text;html=1;strokeColor=none;fillColor=none;align=left;verticalAlign=middle;whiteSpace=wrap;rounded=0;fontSize=14;fontStyle=1" vertex="1" parent="1">
                    <mxGeometry x="80" y="950" width="200" height="30" as="geometry"/>
                </mxCell>
                
                <mxCell id="write_step1" value="1. Handle Validation" style="rounded=1;whiteSpace=wrap;html=1;fillColor=#dae8fc;strokeColor=#6c8ebf;fontSize=11;" vertex="1" parent="1">
                    <mxGeometry x="80" y="990" width="140" height="40" as="geometry"/>
                </mxCell>
                
                <mxCell id="write_step2" value="2. Find/Create Namespace" style="rounded=1;whiteSpace=wrap;html=1;fillColor=#dae8fc;strokeColor=#6c8ebf;fontSize=11;" vertex="1" parent="1">
                    <mxGeometry x="240" y="990" width="140" height="40" as="geometry"/>
                </mxCell>
                
                <mxCell id="write_step3" value="3. Find Active Page" style="rounded=1;whiteSpace=wrap;html=1;fillColor=#dae8fc;strokeColor=#6c8ebf;fontSize=11;" vertex="1" parent="1">
                    <mxGeometry x="400" y="990" width="140" height="40" as="geometry"/>
                </mxCell>
                
                <mxCell id="write_step4" value="4. Allocate Entry" style="rounded=1;whiteSpace=wrap;html=1;fillColor=#dae8fc;strokeColor=#6c8ebf;fontSize=11;" vertex="1" parent="1">
                    <mxGeometry x="560" y="990" width="140" height="40" as="geometry"/>
                </mxCell>
                
                <mxCell id="write_step5" value="5. Write to Flash" style="rounded=1;whiteSpace=wrap;html=1;fillColor=#dae8fc;strokeColor=#6c8ebf;fontSize=11;" vertex="1" parent="1">
                    <mxGeometry x="720" y="990" width="140" height="40" as="geometry"/>
                </mxCell>
                
                <!-- Read Flow -->
                <mxCell id="read_flow" value="Read Operation Flow" style="text;html=1;strokeColor=none;fillColor=none;align=left;verticalAlign=middle;whiteSpace=wrap;rounded=0;fontSize=14;fontStyle=1" vertex="1" parent="1">
                    <mxGeometry x="80" y="1060" width="200" height="30" as="geometry"/>
                </mxCell>
                
                <mxCell id="read_step1" value="1. Handle Validation" style="rounded=1;whiteSpace=wrap;html=1;fillColor=#e1d5e7;strokeColor=#9673a6;fontSize=11;" vertex="1" parent="1">
                    <mxGeometry x="80" y="1100" width="140" height="40" as="geometry"/>
                </mxCell>
                
                <mxCell id="read_step2" value="2. Search Pages (New-&gt;Old)" style="rounded=1;whiteSpace=wrap;html=1;fillColor=#e1d5e7;strokeColor=#9673a6;fontSize=11;" vertex="1" parent="1">
                    <mxGeometry x="240" y="1100" width="140" height="40" as="geometry"/>
                </mxCell>
                
                <mxCell id="read_step3" value="3. Binary Search Entry" style="rounded=1;whiteSpace=wrap;html=1;fillColor=#e1d5e7;strokeColor=#9673a6;fontSize=11;" vertex="1" parent="1">
                    <mxGeometry x="400" y="1100" width="140" height="40" as="geometry"/>
                </mxCell>
                
                <mxCell id="read_step4" value="4. Verify CRC" style="rounded=1;whiteSpace=wrap;html=1;fillColor=#e1d5e7;strokeColor=#9673a6;fontSize=11;" vertex="1" parent="1">
                    <mxGeometry x="560" y="1100" width="140" height="40" as="geometry"/>
                </mxCell>
                
                <mxCell id="read_step5" value="5. Return Data" style="rounded=1;whiteSpace=wrap;html=1;fillColor=#e1d5e7;strokeColor=#9673a6;fontSize=11;" vertex="1" parent="1">
                    <mxGeometry x="720" y="1100" width="140" height="40" as="geometry"/>
                </mxCell>
                
                <!-- Page States -->
                <mxCell id="page_states_title" value="Page State Transitions" style="text;html=1;strokeColor=none;fillColor=none;align=left;verticalAlign=middle;whiteSpace=wrap;rounded=0;fontSize=14;fontStyle=1" vertex="1" parent="1">
                    <mxGeometry x="920" y="950" width="200" height="30" as="geometry"/>
                </mxCell>
                
                <mxCell id="state_uninit" value="UNINITIALIZED&#xa;0xFFFFFFFF" style="rounded=1;whiteSpace=wrap;html=1;fillColor=#f8cecc;strokeColor=#b85450;fontSize=10;align=center;" vertex="1" parent="1">
                    <mxGeometry x="920" y="990" width="110" height="50" as="geometry"/>
                </mxCell>
                
                <mxCell id="state_active" value="ACTIVE&#xa;0xFFFFFFFE" style="rounded=1;whiteSpace=wrap;html=1;fillColor=#ffcc99;strokeColor=#d79b00;fontSize=10;align=center;" vertex="1" parent="1">
                    <mxGeometry x="1050" y="990" width="110" height="50" as="geometry"/>
                </mxCell>
                
                <mxCell id="state_full" value="FULL&#xa;0xFFFFFFFC" style="rounded=1;whiteSpace=wrap;html=1;fillColor=#d0cee2;strokeColor=#56517e;fontSize=10;align=center;" vertex="1" parent="1">
                    <mxGeometry x="1180" y="990" width="110" height="50" as="geometry"/>
                </mxCell>
                
                <mxCell id="state_freeing" value="FREEING&#xa;0xFFFFFFF8" style="rounded=1;whiteSpace=wrap;html=1;fillColor=#ffe6cc;strokeColor=#d79b00;fontSize=10;align=center;" vertex="1" parent="1">
                    <mxGeometry x="1310" y="990" width="110" height="50" as="geometry"/>
                </mxCell>
                
                <mxCell id="state_corrupt" value="CORRUPT&#xa;0xFFFFFFF0" style="rounded=1;whiteSpace=wrap;html=1;fillColor=#ff9999;strokeColor=#d6b656;fontSize=10;align=center;" vertex="1" parent="1">
                    <mxGeometry x="1440" y="990" width="110" height="50" as="geometry"/>
                </mxCell>
                
                <!-- Arrows for state transitions -->
                <mxCell id="arrow1" value="" style="endArrow=classic;html=1;exitX=1;exitY=0.5;exitDx=0;exitDy=0;entryX=0;entryY=0.5;entryDx=0;entryDy=0;strokeWidth=2;" edge="1" parent="1" source="state_uninit" target="state_active">
                    <mxGeometry width="50" height="50" relative="1" as="geometry">
                        <mxPoint x="1040" y="1015" as="sourcePoint"/>
                        <mxPoint x="1090" y="965" as="targetPoint"/>
                    </mxGeometry>
                </mxCell>
                
                <mxCell id="arrow2" value="" style="endArrow=classic;html=1;exitX=1;exitY=0.5;exitDx=0;exitDy=0;entryX=0;entryY=0.5;entryDx=0;entryDy=0;strokeWidth=2;" edge="1" parent="1" source="state_active" target="state_full">
                    <mxGeometry width="50" height="50" relative="1" as="geometry">
                        <mxPoint x="1170" y="1015" as="sourcePoint"/>
                        <mxPoint x="1220" y="965" as="targetPoint"/>
                    </mxGeometry>
                </mxCell>
                
                <mxCell id="arrow3" value="" style="endArrow=classic;html=1;exitX=1;exitY=0.5;exitDx=0;exitDy=0;entryX=0;entryY=0.5;entryDx=0;entryDy=0;strokeWidth=2;" edge="1" parent="1" source="state_full" target="state_freeing">
                    <mxGeometry width="50" height="50" relative="1" as="geometry">
                        <mxPoint x="1300" y="1015" as="sourcePoint"/>
                        <mxPoint x="1350" y="965" as="targetPoint"/>
                    </mxGeometry>
                </mxCell>
                
                <mxCell id="arrow4" value="" style="endArrow=classic;html=1;exitX=0.5;exitY=1;exitDx=0;exitDy=0;entryX=0.5;entryY=0;entryDx=0;entryDy=0;strokeWidth=2;" edge="1" parent="1" source="state_freeing" target="state_uninit">
                    <mxGeometry width="50" height="50" relative="1" as="geometry">
                        <mxPoint x="1365" y="1050" as="sourcePoint"/>
                        <mxPoint x="975" y="1090" as="targetPoint"/>
                        <Array as="points">
                            <mxPoint x="1365" y="1080"/>
                            <mxPoint x="975" y="1080"/>
                        </Array>
                    </mxGeometry>
                </mxCell>
                
                <!-- Legend -->
                <mxCell id="legend_title" value="Legend" style="text;html=1;strokeColor=none;fillColor=none;align=left;verticalAlign=middle;whiteSpace=wrap;rounded=0;fontSize=16;fontStyle=1" vertex="1" parent="1">
                    <mxGeometry x="920" y="1160" width="80" height="30" as="geometry"/>
                </mxCell>
                
                <mxCell id="legend_mem" value="Memory Structure" style="rounded=1;whiteSpace=wrap;html=1;fillColor=#e1d5e7;strokeColor=#9673a6;fontSize=11;" vertex="1" parent="1">
                    <mxGeometry x="920" y="1200" width="130" height="30" as="geometry"/>
                </mxCell>
                
                <mxCell id="legend_flash" value="Flash Storage" style="rounded=1;whiteSpace=wrap;html=1;fillColor=#ffd966;strokeColor=#d6b656;fontSize=11;" vertex="1" parent="1">
                    <mxGeometry x="1070" y="1200" width="130" height="30" as="geometry"/>
                </mxCell>
                
                <mxCell id="legend_data" value="Data Entry" style="rounded=1;whiteSpace=wrap;html=1;fillColor=#fff2cc;strokeColor=#d6b656;fontSize=11;" vertex="1" parent="1">
                    <mxGeometry x="1220" y="1200" width="130" height="30" as="geometry"/>
                </mxCell>
                
                <mxCell id="legend_blob" value="BLOB Data" style="rounded=1;whiteSpace=wrap;html=1;fillColor=#ffe6cc;strokeColor=#d79b00;fontSize=11;" vertex="1" parent="1">
                    <mxGeometry x="1370" y="1200" width="130" height="30" as="geometry"/>
                </mxCell>
                
                <mxCell id="legend_erased" value="Erased/Free" style="rounded=1;whiteSpace=wrap;html=1;fillColor=#f8cecc;strokeColor=#b85450;fontSize=11;" vertex="1" parent="1">
                    <mxGeometry x="1520" y="1200" width="130" height="30" as="geometry"/>
                </mxCell>
                
                <!-- Key Features Box -->
                <mxCell id="features_title" value="Key Implementation Features" style="text;html=1;strokeColor=none;fillColor=none;align=left;verticalAlign=middle;whiteSpace=wrap;rounded=0;fontSize=14;fontStyle=1" vertex="1" parent="1">
                    <mxGeometry x="80" y="1280" width="250" height="30" as="geometry"/>
                </mxCell>
                
                <mxCell id="feature1" value="• Wear Leveling: Sequential page usage with sequence numbers" style="text;html=1;strokeColor=none;fillColor=none;align=left;verticalAlign=middle;whiteSpace=wrap;rounded=0;fontSize=12;" vertex="1" parent="1">
                    <mxGeometry x="80" y="1320" width="500" height="20" as="geometry"/>
                </mxCell>
                
                <mxCell id="feature2" value="• Garbage Collection: Automatic page compaction when space is low" style="text;html=1;strokeColor=none;fillColor=none;align=left;verticalAlign=middle;whiteSpace=wrap;rounded=0;fontSize=12;" vertex="1" parent="1">
                    <mxGeometry x="80" y="1340" width="500" height="20" as="geometry"/>
                </mxCell>
                
                <mxCell id="feature3" value="• Data Integrity: Dual CRC protection (entry + data content)" style="text;html=1;strokeColor=none;fillColor=none;align=left;verticalAlign=middle;whiteSpace=wrap;rounded=0;fontSize=12;" vertex="1" parent="1">
                    <mxGeometry x="80" y="1360" width="500" height="20" as="geometry"/>
                </mxCell>
                
                <mxCell id="feature4" value="• BLOB Support: Large data chunking with version control" style="text;html=1;strokeColor=none;fillColor=none;align=left;verticalAlign=middle;whiteSpace=wrap;rounded=0;fontSize=12;" vertex="1" parent="1">
                    <mxGeometry x="80" y="1380" width="500" height="20" as="geometry"/>
                </mxCell>
                
                <mxCell id="feature5" value="• Performance: Hash table caching + binary search optimization" style="text;html=1;strokeColor=none;fillColor=none;align=left;verticalAlign=middle;whiteSpace=wrap;rounded=0;fontSize=12;" vertex="1" parent="1">
                    <mxGeometry x="80" y="1400" width="500" height="20" as="geometry"/>
                </mxCell>
                
                <mxCell id="feature6" value="• Namespace Support: Isolated key-value domains per application" style="text;html=1;strokeColor=none;fillColor=none;align=left;verticalAlign=middle;whiteSpace=wrap;rounded=0;fontSize=12;" vertex="1" parent="1">
                    <mxGeometry x="80" y="1420" width="500" height="20" as="geometry"/>
                </mxCell>
                
                <!-- Connections -->
                <!-- Memory to Flash connections -->
                <mxCell id="conn1" value="" style="endArrow=classic;html=1;exitX=1;exitY=0.5;exitDx=0;exitDy=0;entryX=0;entryY=0.5;entryDx=0;entryDy=0;strokeColor=#666666;strokeWidth=3;" edge="1" parent="1" source="partition_manager" target="nvs_partition">
                    <mxGeometry width="50" height="50" relative="1" as="geometry">
                        <mxPoint x="580" y="400" as="sourcePoint"/>
                        <mxPoint x="630" y="350" as="targetPoint"/>
                    </mxGeometry>
                </mxCell>
                
                <mxCell id="conn2" value="" style="endArrow=classic;html=1;exitX=1;exitY=0.5;exitDx=0;exitDy=0;entryX=0.25;entryY=1;entryDx=0;entryDy=0;strokeColor=#666666;strokeWidth=2;" edge="1" parent="1" source="active_page" target="page1">
                    <mxGeometry width="50" height="50" relative="1" as="geometry">
                        <mxPoint x="290" y="445" as="sourcePoint"/>
                        <mxPoint x="800" y="175" as="targetPoint"/>
                        <Array as="points">
                            <mxPoint x="995" y="445"/>
                        </Array>
                    </mxGeometry>
                </mxCell>
                
                <!-- Write flow arrows -->
                <mxCell id="write_arrow1" value="" style="endArrow=classic;html=1;exitX=1;exitY=0.5;exitDx=0;exitDy=0;entryX=0;entryY=0.5;entryDx=0;entryDy=0;strokeColor=#6c8ebf;strokeWidth=2;" edge="1" parent="1" source="write_step1" target="write_step2">
                    <mxGeometry width="50" height="50" relative="1" as="geometry">
                        <mxPoint x="230" y="1010" as="sourcePoint"/>
                        <mxPoint x="280" y="960" as="targetPoint"/>
                    </mxGeometry>
                </mxCell>
                
                <mxCell id="write_arrow2" value="" style="endArrow=classic;html=1;exitX=1;exitY=0.5;exitDx=0;exitDy=0;entryX=0;entryY=0.5;entryDx=0;entryDy=0;strokeColor=#6c8ebf;strokeWidth=2;" edge="1" parent="1" source="write_step2" target="write_step3">
                    <mxGeometry width="50" height="50" relative="1" as="geometry">
                        <mxPoint x="390" y="1010" as="sourcePoint"/>
                        <mxPoint x="440" y="960" as="targetPoint"/>
                    </mxGeometry>
                </mxCell>
                
                <mxCell id="write_arrow3" value="" style="endArrow=classic;html=1;exitX=1;exitY=0.5;exitDx=0;exitDy=0;entryX=0;entryY=0.5;entryDx=0;entryDy=0;strokeColor=#6c8ebf;strokeWidth=2;" edge="1" parent="1" source="write_step3" target="write_step4">
                    <mxGeometry width="50" height="50" relative="1" as="geometry">
                        <mxPoint x="550" y="1010" as="sourcePoint"/>
                        <mxPoint x="600" y="960" as="targetPoint"/>
                    </mxGeometry>
                </mxCell>
                
                <mxCell id="write_arrow4" value="" style="endArrow=classic;html=1;exitX=1;exitY=0.5;exitDx=0;exitDy=0;entryX=0;entryY=0.5;entryDx=0;entryDy=0;strokeColor=#6c8ebf;strokeWidth=2;" edge="1" parent="1" source="write_step4" target="write_step5">
                    <mxGeometry width="50" height="50" relative="1" as="geometry">
                        <mxPoint x="710" y="1010" as="sourcePoint"/>
                        <mxPoint x="760" y="960" as="targetPoint"/>
                    </mxGeometry>
                </mxCell>
                
                <!-- Read flow arrows -->
                <mxCell id="read_arrow1" value="" style="endArrow=classic;html=1;exitX=1;exitY=0.5;exitDx=0;exitDy=0;entryX=0;entryY=0.5;entryDx=0;entryDy=0;strokeColor=#9673a6;strokeWidth=2;" edge="1" parent="1" source="read_step1" target="read_step2">
                    <mxGeometry width="50" height="50" relative="1" as="geometry">
                        <mxPoint x="230" y="1120" as="sourcePoint"/>
                        <mxPoint x="280" y="1070" as="targetPoint"/>
                    </mxGeometry>
                </mxCell>
                
                <mxCell id="read_arrow2" value="" style="endArrow=classic;html=1;exitX=1;exitY=0.5;exitDx=0;exitDy=0;entryX=0;entryY=0.5;entryDx=0;entryDy=0;strokeColor=#9673a6;strokeWidth=2;" edge="1" parent="1" source="read_step2" target="read_step3">
                    <mxGeometry width="50" height="50" relative="1" as="geometry">
                        <mxPoint x="390" y="1120" as="sourcePoint"/>
                        <mxPoint x="440" y="1070" as="targetPoint"/>
                    </mxGeometry>
                </mxCell>
                
                <mxCell id="read_arrow3" value="" style="endArrow=classic;html=1;exitX=1;exitY=0.5;exitDx=0;exitDy=0;entryX=0;entryY=0.5;entryDx=0;entryDy=0;strokeColor=#9673a6;strokeWidth=2;" edge="1" parent="1" source="read_step3" target="read_step4">
                    <mxGeometry width="50" height="50" relative="1" as="geometry">
                        <mxPoint x="550" y="1120" as="sourcePoint"/>
                        <mxPoint x="600" y="1070" as="targetPoint"/>
                    </mxGeometry>
                </mxCell>
                
                <mxCell id="read_arrow4" value="" style="endArrow=classic;html=1;exitX=1;exitY=0.5;exitDx=0;exitDy=0;entryX=0;entryY=0.5;entryDx=0;entryDy=0;strokeColor=#9673a6;strokeWidth=2;" edge="1" parent="1" source="read_step4" target="read_step5">
                    <mxGeometry width="50" height="50" relative="1" as="geometry">
                        <mxPoint x="710" y="1120" as="sourcePoint"/>
                        <mxPoint x="760" y="1070" as="targetPoint"/>
                    </mxGeometry>
                </mxCell>
                
            </root>
        </mxGraphModel>
    </diagram>
</mxfile>